<svg xmlns="http://www.w3.org/2000/svg" width="160" height="160" fill="none" viewBox="0 0 160 160">
  <defs>
    <linearGradient id="rvp-bg" x1="20" x2="140" y1="10" y2="150" gradientUnits="userSpaceOnUse">
      <stop stop-color="#FECACA"/>
      <stop offset=".58" stop-color="#F87171"/>
      <stop offset="1" stop-color="#B91C1C"/>
    </linearGradient>
  </defs>
  <rect width="160" height="160" rx="36" fill="url(#rvp-bg)"/>
  <circle cx="128" cy="36" r="18" fill="#FEE2E2" fill-opacity=".34"/>
  <circle cx="36" cy="126" r="22" fill="#7F1D1D" fill-opacity=".14"/>
  <path fill="#FEF2F2" d="M47 45c0-6.627 5.373-12 12-12h28.716c3.183 0 6.235 1.264 8.485 3.515l19.284 19.284A12 12 0 0 1 119 64.284V103c0 6.627-5.373 12-12 12H59c-6.627 0-12-5.373-12-12V45Z"/>
  <path fill="#FCA5A5" d="M88 33v23c0 3.314 2.686 6 6 6h23"/>
  <path stroke="#991B1B" stroke-linecap="round" stroke-width="8" d="M63 67h35M63 84h26"/>
  <circle cx="98" cy="102" r="16" fill="#7F1D1D" fill-opacity=".14" stroke="#7F1D1D" stroke-width="8"/>
  <path stroke="#7F1D1D" stroke-linecap="round" stroke-width="8" d="m109 113 11 11"/>
</svg>
